<svg width="52" height="47" viewBox="0 0 52 47" fill="none" xmlns="http://www.w3.org/2000/svg">
<path d="M20.6137 21.0665C26.2673 21.0665 30.8505 16.4834 30.8505 10.8298C30.8505 5.17617 26.2673 0.593018 20.6137 0.593018C14.9601 0.593018 10.377 5.17617 10.377 10.8298C10.377 16.4834 14.9601 21.0665 20.6137 21.0665Z" fill="white"/>
<path d="M21.5089 26.2104C14.5223 25.9545 0.139648 29.435 0.139648 36.4216V41.54H24.5543C18.2331 34.4766 21.4065 26.4663 21.5089 26.2104Z" fill="white"/>
<path d="M44.7462 36.473C45.6675 34.963 46.2049 33.1972 46.2049 31.3034C46.2049 25.6476 41.624 21.0667 35.9682 21.0667C30.3124 21.0667 25.7314 25.6476 25.7314 31.3034C25.7314 36.9592 30.3124 41.5401 35.9682 41.5401C37.862 41.5401 39.6278 40.9771 41.1378 40.0814L47.7149 46.6585L51.3233 43.0501L44.7462 36.473ZM35.9682 36.4218C33.1531 36.4218 30.8498 34.1185 30.8498 31.3034C30.8498 28.4883 33.1531 26.185 35.9682 26.185C38.7833 26.185 41.0866 28.4883 41.0866 31.3034C41.0866 34.1185 38.7833 36.4218 35.9682 36.4218Z" fill="white"/>
</svg>
