<svg width="52" height="61" viewBox="0 0 52 61" fill="none" xmlns="http://www.w3.org/2000/svg">
<path d="M34.7303 0.992676H17.5624V6.69862H34.7303V0.992676ZM23.285 38.0813H29.0077V20.9635H23.285V38.0813ZM46.2614 19.2232L50.3245 15.1719C49.0941 13.7169 47.7493 12.3475 46.29 11.1493L42.2269 15.2005C37.7919 11.6628 32.2123 9.55159 26.1464 9.55159C11.9256 9.55159 0.394531 21.0491 0.394531 35.2283C0.394531 49.4076 11.897 60.9051 26.1464 60.9051C40.3957 60.9051 51.8982 49.4076 51.8982 35.2283C51.8982 29.18 49.7808 23.6167 46.2614 19.2232ZM26.1464 55.1991C15.0731 55.1991 6.11716 46.2693 6.11716 35.2283C6.11716 24.1873 15.0731 15.2575 26.1464 15.2575C37.2196 15.2575 46.1756 24.1873 46.1756 35.2283C46.1756 46.2693 37.2196 55.1991 26.1464 55.1991Z" fill="white"/>
</svg>
