<svg width="50" height="41" viewBox="0 0 50 41" fill="none" xmlns="http://www.w3.org/2000/svg">
<path d="M4.78829 16.8395C2.60726 16.8395 0.84668 18.6294 0.84668 20.8468C0.84668 23.0642 2.60726 24.8541 4.78829 24.8541C6.96931 24.8541 8.72989 23.0642 8.72989 20.8468C8.72989 18.6294 6.96931 16.8395 4.78829 16.8395ZM4.78829 0.810303C2.60726 0.810303 0.84668 2.60023 0.84668 4.8176C0.84668 7.03497 2.60726 8.8249 4.78829 8.8249C6.96931 8.8249 8.72989 7.03497 8.72989 4.8176C8.72989 2.60023 6.96931 0.810303 4.78829 0.810303ZM4.78829 32.8687C2.60726 32.8687 0.84668 34.6853 0.84668 36.876C0.84668 39.0667 2.63354 40.8833 4.78829 40.8833C6.94303 40.8833 8.72989 39.0667 8.72989 36.876C8.72989 34.6853 6.96931 32.8687 4.78829 32.8687ZM12.6715 39.5475H49.4598V34.2045H12.6715V39.5475ZM12.6715 23.5183H49.4598V18.1753H12.6715V23.5183ZM12.6715 2.14607V7.48913H49.4598V2.14607H12.6715Z" fill="white"/>
</svg>
